<svg xmlns="http://www.w3.org/2000/svg" viewBox="0 0 64 64">
  <defs>
    <linearGradient id="grad" x1="0%" y1="0%" x2="100%" y2="100%">
      <stop offset="0%" style="stop-color:#317EFB;stop-opacity:1" />
      <stop offset="100%" style="stop-color:#60a5fa;stop-opacity:1" />
    </linearGradient>
  </defs>

  <!-- 背景圆形 -->
  <circle cx="32" cy="32" r="30" fill="url(#grad)"/>

  <!-- C 字母 (左侧) -->
  <path d="M 24 18 Q 18 18 18 24 L 18 40 Q 18 46 24 46 L 28 46 L 28 41 L 24 41 Q 23 41 23 40 L 23 24 Q 23 23 24 23 L 28 23 L 28 18 Z"
        fill="white" opacity="0.95"/>

  <!-- G 字母 (右侧) -->
  <path d="M 40 18 Q 34 18 34 24 L 34 40 Q 34 46 40 46 L 44 46 Q 46 46 46 44 L 46 32 L 40 32 L 40 37 L 41 37 L 41 41 L 40 41 Q 39 41 39 40 L 39 24 Q 39 23 40 23 L 44 23 L 44 18 Z"
        fill="white" opacity="0.95"/>

  <!-- 装饰星星 (右上角) -->
  <path d="M 52 14 L 53 16 L 55 16 L 53.5 17.5 L 54 19 L 52 18 L 50 19 L 50.5 17.5 L 49 16 L 51 16 Z"
        fill="white" opacity="0.8"/>
</svg>